<svg id="visual" viewBox="0 0 3840 2160" width="3840" height="2160" xmlns="http://www.w3.org/2000/svg" xmlns:xlink="http://www.w3.org/1999/xlink" version="1.1"><g stroke-width="9" stroke-linejoin="bevel"><path d="M1904 1025L2184.3 1022L1930 880Z" fill="#070707" stroke="#000000"></path><path d="M2184.3 1022L2241.3 851L1930 880Z" fill="#080808" stroke="#000000"></path><path d="M2216.3 1353L2426.6 1054L2184.3 1022Z" fill="#0b0b0b" stroke="#000000"></path><path d="M2184.3 1022L2426.6 1054L2241.3 851Z" fill="#050505" stroke="#000000"></path><path d="M1904 1025L1881 1345L2184.3 1022Z" fill="#020202" stroke="#000000"></path><path d="M1930 880L1639.7 1046L1904 1025Z" fill="#060606" stroke="#000000"></path><path d="M1904 1025L1671.7 1291L1881 1345Z" fill="#0b0b0b" stroke="#000000"></path><path d="M1881 1345L2216.3 1353L2184.3 1022Z" fill="#040404" stroke="#000000"></path><path d="M2426.6 1054L2448.6 820L2241.3 851Z" fill="#000000" stroke="#000000"></path><path d="M2241.3 851L2252.3 592L1930 880Z" fill="#0b0b0b" stroke="#000000"></path><path d="M2448.6 820L2252.3 592L2241.3 851Z" fill="#050505" stroke="#000000"></path><path d="M1930 880L1601.7 840L1639.7 1046Z" fill="#040404" stroke="#000000"></path><path d="M1867 507L1601.7 840L1930 880Z" fill="#010101" stroke="#000000"></path><path d="M1347.4 1055L1671.7 1291L1639.7 1046Z" fill="#040404" stroke="#000000"></path><path d="M1639.7 1046L1671.7 1291L1904 1025Z" fill="#0a0a0a" stroke="#000000"></path><path d="M2252.3 592L1867 507L1930 880Z" fill="#070707" stroke="#000000"></path><path d="M2216.3 1353L2528.6 1302L2426.6 1054Z" fill="#060606" stroke="#000000"></path><path d="M2426.6 1054L2693.9 804L2448.6 820Z" fill="#040404" stroke="#000000"></path><path d="M2448.6 820L2499.6 600L2252.3 592Z" fill="#000000" stroke="#000000"></path><path d="M2199.3 224L1891 261L1867 507Z" fill="#020202" stroke="#000000"></path><path d="M2693.9 804L2499.6 600L2448.6 820Z" fill="#020202" stroke="#000000"></path><path d="M1867 507L1602.7 503L1601.7 840Z" fill="#090909" stroke="#000000"></path><path d="M2785.9 1038L2693.9 804L2426.6 1054Z" fill="#060606" stroke="#000000"></path><path d="M1991 1672L2261.3 1619L2216.3 1353Z" fill="#010101" stroke="#000000"></path><path d="M2216.3 1353L2261.3 1619L2528.6 1302Z" fill="#0a0a0a" stroke="#000000"></path><path d="M1991 1672L2216.3 1353L1881 1345Z" fill="#050505" stroke="#000000"></path><path d="M1593.7 1686L1991 1672L1881 1345Z" fill="#020202" stroke="#000000"></path><path d="M1373.4 746L1347.4 1055L1601.7 840Z" fill="#040404" stroke="#000000"></path><path d="M1601.7 840L1347.4 1055L1639.7 1046Z" fill="#090909" stroke="#000000"></path><path d="M1671.7 1291L1593.7 1686L1881 1345Z" fill="#000000" stroke="#000000"></path><path d="M1602.7 503L1373.4 746L1601.7 840Z" fill="#090909" stroke="#000000"></path><path d="M2199.3 224L1867 507L2252.3 592Z" fill="#020202" stroke="#000000"></path><path d="M1867 507L1891 261L1602.7 503Z" fill="#060606" stroke="#000000"></path><path d="M2711.9 1346L2785.9 1038L2528.6 1302Z" fill="#070707" stroke="#000000"></path><path d="M2528.6 1302L2785.9 1038L2426.6 1054Z" fill="#000000" stroke="#000000"></path><path d="M2519.6 1625L2711.9 1346L2528.6 1302Z" fill="#070707" stroke="#000000"></path><path d="M2491.6 300L2252.3 592L2499.6 600Z" fill="#0b0b0b" stroke="#000000"></path><path d="M2491.6 300L2199.3 224L2252.3 592Z" fill="#080808" stroke="#000000"></path><path d="M1370.4 271L1344.4 584L1602.7 503Z" fill="#040404" stroke="#000000"></path><path d="M1602.7 503L1344.4 584L1373.4 746Z" fill="#090909" stroke="#000000"></path><path d="M1373.4 746L1164.1 799L1347.4 1055Z" fill="#040404" stroke="#000000"></path><path d="M1094.1 1026L1328.4 1338L1347.4 1055Z" fill="#070707" stroke="#000000"></path><path d="M1347.4 1055L1328.4 1338L1671.7 1291Z" fill="#020202" stroke="#000000"></path><path d="M2261.3 1619L2519.6 1625L2528.6 1302Z" fill="#070707" stroke="#000000"></path><path d="M2533.6 1837L2519.6 1625L2261.3 1619Z" fill="#0a0a0a" stroke="#000000"></path><path d="M2805.9 504L2491.6 300L2499.6 600Z" fill="#0b0b0b" stroke="#000000"></path><path d="M1430.4 1628L1593.7 1686L1671.7 1291Z" fill="#000000" stroke="#000000"></path><path d="M1328.4 1338L1430.4 1628L1671.7 1291Z" fill="#020202" stroke="#000000"></path><path d="M2693.9 804L2805.9 504L2499.6 600Z" fill="#070707" stroke="#000000"></path><path d="M3036.1 739L2805.9 504L2693.9 804Z" fill="#0a0a0a" stroke="#000000"></path><path d="M1344.4 584L1164.1 799L1373.4 746Z" fill="#040404" stroke="#000000"></path><path d="M1891 261L1572.7 206L1602.7 503Z" fill="#050505" stroke="#000000"></path><path d="M1344.4 584L1164.1 495L1164.1 799Z" fill="#020202" stroke="#000000"></path><path d="M1603.7 0L1572.7 206L1891 261Z" fill="#0a0a0a" stroke="#000000"></path><path d="M2519.6 1625L2772.9 1553L2711.9 1346Z" fill="#040404" stroke="#000000"></path><path d="M3075.1 1350L3087.1 1048L2785.9 1038Z" fill="#010101" stroke="#000000"></path><path d="M2785.9 1038L3036.1 739L2693.9 804Z" fill="#0a0a0a" stroke="#000000"></path><path d="M1164.1 799L1094.1 1026L1347.4 1055Z" fill="#010101" stroke="#000000"></path><path d="M1328.4 1338L1075.1 1597L1430.4 1628Z" fill="#040404" stroke="#000000"></path><path d="M1876 1942L2146.3 1930L1991 1672Z" fill="#090909" stroke="#000000"></path><path d="M1991 1672L2146.3 1930L2261.3 1619Z" fill="#010101" stroke="#000000"></path><path d="M2519.6 1625L2533.6 1837L2772.9 1553Z" fill="#070707" stroke="#000000"></path><path d="M1633.7 1866L1991 1672L1593.7 1686Z" fill="#070707" stroke="#000000"></path><path d="M1572.7 206L1370.4 271L1602.7 503Z" fill="#060606" stroke="#000000"></path><path d="M1431.4 1911L1633.7 1866L1593.7 1686Z" fill="#0b0b0b" stroke="#000000"></path><path d="M1633.7 1866L1876 1942L1991 1672Z" fill="#080808" stroke="#000000"></path><path d="M2158.3 0L1933 0L2199.3 224Z" fill="#010101" stroke="#000000"></path><path d="M2199.3 224L1933 0L1891 261Z" fill="#000000" stroke="#000000"></path><path d="M1572.7 206L1435.4 0L1370.4 271Z" fill="#040404" stroke="#000000"></path><path d="M2506.6 0L2199.3 224L2491.6 300Z" fill="#060606" stroke="#000000"></path><path d="M2506.6 0L2158.3 0L2199.3 224Z" fill="#050505" stroke="#000000"></path><path d="M2146.3 1930L2533.6 1837L2261.3 1619Z" fill="#060606" stroke="#000000"></path><path d="M1370.4 271L1164.1 495L1344.4 584Z" fill="#060606" stroke="#000000"></path><path d="M789.9 835L886.9 1097L1094.1 1026Z" fill="#0a0a0a" stroke="#000000"></path><path d="M2805.9 504L2810.9 319L2491.6 300Z" fill="#000000" stroke="#000000"></path><path d="M3087.1 1048L3036.1 739L2785.9 1038Z" fill="#040404" stroke="#000000"></path><path d="M2805.9 504L3059.1 575L2810.9 319Z" fill="#040404" stroke="#000000"></path><path d="M1094.1 1026L1071.1 1347L1328.4 1338Z" fill="#060606" stroke="#000000"></path><path d="M1430.4 1628L1431.4 1911L1593.7 1686Z" fill="#0b0b0b" stroke="#000000"></path><path d="M3075.1 1350L2785.9 1038L2711.9 1346Z" fill="#000000" stroke="#000000"></path><path d="M1933 0L1603.7 0L1891 261Z" fill="#070707" stroke="#000000"></path><path d="M1370.4 271L1123.1 336L1164.1 495Z" fill="#010101" stroke="#000000"></path><path d="M2790.9 0L2506.6 0L2491.6 300Z" fill="#020202" stroke="#000000"></path><path d="M3261.4 579L3059.1 575L3036.1 739Z" fill="#060606" stroke="#000000"></path><path d="M3036.1 739L3059.1 575L2805.9 504Z" fill="#010101" stroke="#000000"></path><path d="M2810.9 319L2790.9 0L2491.6 300Z" fill="#080808" stroke="#000000"></path><path d="M2772.9 1553L3075.1 1350L2711.9 1346Z" fill="#020202" stroke="#000000"></path><path d="M3010.1 1627L3075.1 1350L2772.9 1553Z" fill="#080808" stroke="#000000"></path><path d="M1035.1 1853L1431.4 1911L1430.4 1628Z" fill="#000000" stroke="#000000"></path><path d="M1661.7 2160L1990 2160L1876 1942Z" fill="#050505" stroke="#000000"></path><path d="M1152.1 0L1123.1 336L1370.4 271Z" fill="#020202" stroke="#000000"></path><path d="M789.9 835L1094.1 1026L1164.1 799Z" fill="#070707" stroke="#000000"></path><path d="M1094.1 1026L886.9 1097L1071.1 1347Z" fill="#070707" stroke="#000000"></path><path d="M1603.7 0L1435.4 0L1572.7 206Z" fill="#000000" stroke="#000000"></path><path d="M1071.1 1347L1075.1 1597L1328.4 1338Z" fill="#050505" stroke="#000000"></path><path d="M2466.6 2160L2673.9 1940L2533.6 1837Z" fill="#0b0b0b" stroke="#000000"></path><path d="M2533.6 1837L2673.9 1940L2772.9 1553Z" fill="#000000" stroke="#000000"></path><path d="M2466.6 2160L2533.6 1837L2146.3 1930Z" fill="#020202" stroke="#000000"></path><path d="M789.9 835L1164.1 799L788.9 524Z" fill="#050505" stroke="#000000"></path><path d="M1071.1 1347L831.9 1402L1075.1 1597Z" fill="#050505" stroke="#000000"></path><path d="M2673.9 1940L3010.1 1627L2772.9 1553Z" fill="#020202" stroke="#000000"></path><path d="M1661.7 2160L1876 1942L1633.7 1866Z" fill="#080808" stroke="#000000"></path><path d="M1876 1942L1990 2160L2146.3 1930Z" fill="#040404" stroke="#000000"></path><path d="M1990 2160L2131.3 2160L2146.3 1930Z" fill="#080808" stroke="#000000"></path><path d="M2954.1 0L2790.9 0L2810.9 319Z" fill="#070707" stroke="#000000"></path><path d="M1431.4 1911L1661.7 2160L1633.7 1866Z" fill="#0a0a0a" stroke="#000000"></path><path d="M1305.4 2160L1661.7 2160L1431.4 1911Z" fill="#000000" stroke="#000000"></path><path d="M2131.3 2160L2466.6 2160L2146.3 1930Z" fill="#060606" stroke="#000000"></path><path d="M2673.9 1940L3053.1 1870L3010.1 1627Z" fill="#0a0a0a" stroke="#000000"></path><path d="M788.9 524L1164.1 799L1164.1 495Z" fill="#080808" stroke="#000000"></path><path d="M3087.1 1048L3287.4 755L3036.1 739Z" fill="#060606" stroke="#000000"></path><path d="M3059.1 575L3065.1 214L2810.9 319Z" fill="#010101" stroke="#000000"></path><path d="M3309.4 1151L3287.4 755L3087.1 1048Z" fill="#050505" stroke="#000000"></path><path d="M3309.4 1151L3087.1 1048L3075.1 1350Z" fill="#050505" stroke="#000000"></path><path d="M3317.4 336L3065.1 214L3059.1 575Z" fill="#070707" stroke="#000000"></path><path d="M3299.4 1317L3309.4 1151L3075.1 1350Z" fill="#020202" stroke="#000000"></path><path d="M3287.4 755L3261.4 579L3036.1 739Z" fill="#050505" stroke="#000000"></path><path d="M611.6 1133L831.9 1402L886.9 1097Z" fill="#000000" stroke="#000000"></path><path d="M886.9 1097L831.9 1402L1071.1 1347Z" fill="#050505" stroke="#000000"></path><path d="M1075.1 1597L1035.1 1853L1430.4 1628Z" fill="#000000" stroke="#000000"></path><path d="M3264.4 1600L3299.4 1317L3075.1 1350Z" fill="#000000" stroke="#000000"></path><path d="M1435.4 0L1152.1 0L1370.4 271Z" fill="#000000" stroke="#000000"></path><path d="M1123.1 336L788.9 524L1164.1 495Z" fill="#020202" stroke="#000000"></path><path d="M792.9 225L788.9 524L1123.1 336Z" fill="#0b0b0b" stroke="#000000"></path><path d="M3344.4 0L2954.1 0L3065.1 214Z" fill="#080808" stroke="#000000"></path><path d="M3065.1 214L2954.1 0L2810.9 319Z" fill="#090909" stroke="#000000"></path><path d="M881.9 1640L1035.1 1853L1075.1 1597Z" fill="#0b0b0b" stroke="#000000"></path><path d="M831.9 1402L881.9 1640L1075.1 1597Z" fill="#050505" stroke="#000000"></path><path d="M2755.9 2160L3053.1 1870L2673.9 1940Z" fill="#090909" stroke="#000000"></path><path d="M3010.1 1627L3264.4 1600L3075.1 1350Z" fill="#0b0b0b" stroke="#000000"></path><path d="M3053.1 1870L3264.4 1600L3010.1 1627Z" fill="#000000" stroke="#000000"></path><path d="M2466.6 2160L2755.9 2160L2673.9 1940Z" fill="#040404" stroke="#000000"></path><path d="M1035.1 1853L1305.4 2160L1431.4 1911Z" fill="#010101" stroke="#000000"></path><path d="M3261.4 579L3317.4 336L3059.1 575Z" fill="#080808" stroke="#000000"></path><path d="M3510.7 611L3317.4 336L3261.4 579Z" fill="#0a0a0a" stroke="#000000"></path><path d="M3510.7 611L3261.4 579L3287.4 755Z" fill="#000000" stroke="#000000"></path><path d="M789.9 835L611.6 1133L886.9 1097Z" fill="#090909" stroke="#000000"></path><path d="M831.9 1402L492.6 1615L881.9 1640Z" fill="#0a0a0a" stroke="#000000"></path><path d="M503.6 789L611.6 1133L789.9 835Z" fill="#020202" stroke="#000000"></path><path d="M1152.1 0L792.9 225L1123.1 336Z" fill="#060606" stroke="#000000"></path><path d="M788.9 524L503.6 789L789.9 835Z" fill="#000000" stroke="#000000"></path><path d="M881.9 1640L894.9 1921L1035.1 1853Z" fill="#0a0a0a" stroke="#000000"></path><path d="M1035.1 1853L1110.1 2160L1305.4 2160Z" fill="#070707" stroke="#000000"></path><path d="M571.6 1936L894.9 1921L881.9 1640Z" fill="#090909" stroke="#000000"></path><path d="M894.9 1921L1110.1 2160L1035.1 1853Z" fill="#040404" stroke="#000000"></path><path d="M3299.4 1317L3498.7 1373L3309.4 1151Z" fill="#040404" stroke="#000000"></path><path d="M3574.7 803L3510.7 611L3287.4 755Z" fill="#040404" stroke="#000000"></path><path d="M3264.4 1600L3498.7 1373L3299.4 1317Z" fill="#020202" stroke="#000000"></path><path d="M3580.7 1599L3498.7 1373L3264.4 1600Z" fill="#0a0a0a" stroke="#000000"></path><path d="M3574.7 1056L3287.4 755L3309.4 1151Z" fill="#0b0b0b" stroke="#000000"></path><path d="M3030.1 2160L3224.4 1935L3053.1 1870Z" fill="#040404" stroke="#000000"></path><path d="M3053.1 1870L3224.4 1935L3264.4 1600Z" fill="#020202" stroke="#000000"></path><path d="M3498.7 1373L3574.7 1056L3309.4 1151Z" fill="#070707" stroke="#000000"></path><path d="M3574.7 1056L3574.7 803L3287.4 755Z" fill="#0b0b0b" stroke="#000000"></path><path d="M2755.9 2160L3030.1 2160L3053.1 1870Z" fill="#080808" stroke="#000000"></path><path d="M1152.1 0L843.9 0L792.9 225Z" fill="#0a0a0a" stroke="#000000"></path><path d="M568.6 487L788.9 524L792.9 225Z" fill="#0a0a0a" stroke="#000000"></path><path d="M568.6 487L503.6 789L788.9 524Z" fill="#090909" stroke="#000000"></path><path d="M497.6 335L568.6 487L792.9 225Z" fill="#080808" stroke="#000000"></path><path d="M291.3 1051L506.6 1421L611.6 1133Z" fill="#060606" stroke="#000000"></path><path d="M611.6 1133L506.6 1421L831.9 1402Z" fill="#0a0a0a" stroke="#000000"></path><path d="M3497.7 0L3344.4 0L3317.4 336Z" fill="#070707" stroke="#000000"></path><path d="M3317.4 336L3344.4 0L3065.1 214Z" fill="#0a0a0a" stroke="#000000"></path><path d="M3626.7 253L3317.4 336L3510.7 611Z" fill="#000000" stroke="#000000"></path><path d="M3498.7 1373L3840 1122L3574.7 1056Z" fill="#040404" stroke="#000000"></path><path d="M3840 773L3510.7 611L3574.7 803Z" fill="#040404" stroke="#000000"></path><path d="M3614.7 1931L3580.7 1599L3264.4 1600Z" fill="#0a0a0a" stroke="#000000"></path><path d="M3614.7 1931L3264.4 1600L3224.4 1935Z" fill="#050505" stroke="#000000"></path><path d="M302.3 606L324.3 880L503.6 789Z" fill="#0b0b0b" stroke="#000000"></path><path d="M286.3 1422L492.6 1615L506.6 1421Z" fill="#050505" stroke="#000000"></path><path d="M486.6 0L497.6 335L792.9 225Z" fill="#040404" stroke="#000000"></path><path d="M324.3 880L611.6 1133L503.6 789Z" fill="#0b0b0b" stroke="#000000"></path><path d="M506.6 1421L492.6 1615L831.9 1402Z" fill="#070707" stroke="#000000"></path><path d="M894.9 1921L808.9 2160L1110.1 2160Z" fill="#0a0a0a" stroke="#000000"></path><path d="M571.6 1936L808.9 2160L894.9 1921Z" fill="#020202" stroke="#000000"></path><path d="M302.3 606L503.6 789L568.6 487Z" fill="#0a0a0a" stroke="#000000"></path><path d="M3840 773L3574.7 803L3574.7 1056Z" fill="#0b0b0b" stroke="#000000"></path><path d="M3840 499L3626.7 253L3510.7 611Z" fill="#000000" stroke="#000000"></path><path d="M3030.1 2160L3322.4 2160L3224.4 1935Z" fill="#010101" stroke="#000000"></path><path d="M3626.7 253L3497.7 0L3317.4 336Z" fill="#090909" stroke="#000000"></path><path d="M324.3 880L291.3 1051L611.6 1133Z" fill="#090909" stroke="#000000"></path><path d="M492.6 1615L571.6 1936L881.9 1640Z" fill="#050505" stroke="#000000"></path><path d="M228.3 1926L571.6 1936L492.6 1615Z" fill="#020202" stroke="#000000"></path><path d="M497.6 335L302.3 606L568.6 487Z" fill="#0a0a0a" stroke="#000000"></path><path d="M324.3 880L0 850L291.3 1051Z" fill="#010101" stroke="#000000"></path><path d="M3840 1411L3498.7 1373L3580.7 1599Z" fill="#080808" stroke="#000000"></path><path d="M3840 1411L3840 1122L3498.7 1373Z" fill="#0b0b0b" stroke="#000000"></path><path d="M3840 1122L3840 773L3574.7 1056Z" fill="#060606" stroke="#000000"></path><path d="M291.3 1051L286.3 1422L506.6 1421Z" fill="#0b0b0b" stroke="#000000"></path><path d="M843.9 0L486.6 0L792.9 225Z" fill="#080808" stroke="#000000"></path><path d="M497.6 335L297.3 271L302.3 606Z" fill="#0a0a0a" stroke="#000000"></path><path d="M3322.4 2160L3614.7 1931L3224.4 1935Z" fill="#0a0a0a" stroke="#000000"></path><path d="M3840 1611L3840 1411L3580.7 1599Z" fill="#000000" stroke="#000000"></path><path d="M3840 773L3840 499L3510.7 611Z" fill="#020202" stroke="#000000"></path><path d="M3626.7 253L3840 0L3497.7 0Z" fill="#080808" stroke="#000000"></path><path d="M486.6 0L297.3 271L497.6 335Z" fill="#050505" stroke="#000000"></path><path d="M0 1311L286.3 1422L291.3 1051Z" fill="#060606" stroke="#000000"></path><path d="M0 1311L218.3 1550L286.3 1422Z" fill="#080808" stroke="#000000"></path><path d="M322.3 2160L553.6 2160L571.6 1936Z" fill="#070707" stroke="#000000"></path><path d="M571.6 1936L553.6 2160L808.9 2160Z" fill="#080808" stroke="#000000"></path><path d="M3840 1866L3840 1611L3580.7 1599Z" fill="#090909" stroke="#000000"></path><path d="M0 850L324.3 880L302.3 606Z" fill="#020202" stroke="#000000"></path><path d="M286.3 1422L218.3 1550L492.6 1615Z" fill="#010101" stroke="#000000"></path><path d="M3840 499L3840 250L3626.7 253Z" fill="#070707" stroke="#000000"></path><path d="M3322.4 2160L3577.7 2160L3614.7 1931Z" fill="#060606" stroke="#000000"></path><path d="M3614.7 1931L3840 1866L3580.7 1599Z" fill="#080808" stroke="#000000"></path><path d="M486.6 0L298.3 0L297.3 271Z" fill="#010101" stroke="#000000"></path><path d="M0 554L0 850L302.3 606Z" fill="#020202" stroke="#000000"></path><path d="M3840 2160L3840 1866L3614.7 1931Z" fill="#070707" stroke="#000000"></path><path d="M3840 250L3840 0L3626.7 253Z" fill="#090909" stroke="#000000"></path><path d="M0 554L302.3 606L297.3 271Z" fill="#0a0a0a" stroke="#000000"></path><path d="M0 850L0 1111L291.3 1051Z" fill="#080808" stroke="#000000"></path><path d="M218.3 1550L228.3 1926L492.6 1615Z" fill="#070707" stroke="#000000"></path><path d="M0 1638L228.3 1926L218.3 1550Z" fill="#050505" stroke="#000000"></path><path d="M0 1111L0 1311L291.3 1051Z" fill="#060606" stroke="#000000"></path><path d="M0 314L0 554L297.3 271Z" fill="#070707" stroke="#000000"></path><path d="M228.3 1926L322.3 2160L571.6 1936Z" fill="#080808" stroke="#000000"></path><path d="M0 0L0 314L297.3 271Z" fill="#070707" stroke="#000000"></path><path d="M0 1311L0 1638L218.3 1550Z" fill="#000000" stroke="#000000"></path><path d="M228.3 1926L0 2160L322.3 2160Z" fill="#070707" stroke="#000000"></path><path d="M3577.7 2160L3840 2160L3614.7 1931Z" fill="#080808" stroke="#000000"></path><path d="M0 1638L0 1883L228.3 1926Z" fill="#040404" stroke="#000000"></path><path d="M298.3 0L0 0L297.3 271Z" fill="#0a0a0a" stroke="#000000"></path><path d="M0 1883L0 2160L228.3 1926Z" fill="#020202" stroke="#000000"></path></g></svg>