<svg id="visual" viewBox="0 0 1920 1080" width="1920" height="1080" xmlns="http://www.w3.org/2000/svg" xmlns:xlink="http://www.w3.org/1999/xlink" version="1.1"><g stroke-width="9" stroke-linejoin="bevel"><path d="M954 474.9L914 597.1L1049 655.1Z" fill="#0a0a0a" stroke="#000000"></path><path d="M1049 655.1L1181 504.9L954 474.9Z" fill="#020202" stroke="#000000"></path><path d="M957 318.6L835 403.9L954 474.9Z" fill="#080808" stroke="#000000"></path><path d="M954 474.9L835 403.9L914 597.1Z" fill="#050505" stroke="#000000"></path><path d="M835 722.4L929 782.4L914 597.1Z" fill="#050505" stroke="#000000"></path><path d="M914 597.1L929 782.4L1049 655.1Z" fill="#0a0a0a" stroke="#000000"></path><path d="M734 617.1L835 722.4L914 597.1Z" fill="#020202" stroke="#000000"></path><path d="M1181 504.9L957 318.6L954 474.9Z" fill="#090909" stroke="#000000"></path><path d="M1069 817.4L1246 636.1L1049 655.1Z" fill="#080808" stroke="#000000"></path><path d="M1049 655.1L1246 636.1L1181 504.9Z" fill="#060606" stroke="#000000"></path><path d="M929 782.4L1069 817.4L1049 655.1Z" fill="#040404" stroke="#000000"></path><path d="M835 403.9L734 617.1L914 597.1Z" fill="#070707" stroke="#000000"></path><path d="M1330 343.6L1082 242.6L1181 504.9Z" fill="#080808" stroke="#000000"></path><path d="M1181 504.9L1082 242.6L957 318.6Z" fill="#020202" stroke="#000000"></path><path d="M929 782.4L1059 890.7L1069 817.4Z" fill="#0a0a0a" stroke="#000000"></path><path d="M1069 817.4L1310 729.4L1246 636.1Z" fill="#090909" stroke="#000000"></path><path d="M905 971.7L1059 890.7L929 782.4Z" fill="#070707" stroke="#000000"></path><path d="M694 316.6L691 459.9L835 403.9Z" fill="#010101" stroke="#000000"></path><path d="M835 403.9L691 459.9L734 617.1Z" fill="#070707" stroke="#000000"></path><path d="M694 316.6L835 403.9L730 258.6Z" fill="#0b0b0b" stroke="#000000"></path><path d="M1347 952.7L1310 729.4L1069 817.4Z" fill="#0b0b0b" stroke="#000000"></path><path d="M1375 585.1L1333 441.9L1181 504.9Z" fill="#020202" stroke="#000000"></path><path d="M1375 585.1L1181 504.9L1246 636.1Z" fill="#0a0a0a" stroke="#000000"></path><path d="M691 459.9L664 633.1L734 617.1Z" fill="#0b0b0b" stroke="#000000"></path><path d="M734 617.1L664 633.1L835 722.4Z" fill="#010101" stroke="#000000"></path><path d="M763 913.7L905 971.7L929 782.4Z" fill="#040404" stroke="#000000"></path><path d="M1082 242.6L982 200.3L957 318.6Z" fill="#010101" stroke="#000000"></path><path d="M1310 729.4L1375 585.1L1246 636.1Z" fill="#070707" stroke="#000000"></path><path d="M1497 406.9L1330 343.6L1333 441.9Z" fill="#010101" stroke="#000000"></path><path d="M1333 441.9L1330 343.6L1181 504.9Z" fill="#000000" stroke="#000000"></path><path d="M1082 242.6L1141 129.3L982 200.3Z" fill="#0b0b0b" stroke="#000000"></path><path d="M730 258.6L835 403.9L957 318.6Z" fill="#000000" stroke="#000000"></path><path d="M691 459.9L537 577.1L664 633.1Z" fill="#050505" stroke="#000000"></path><path d="M982 200.3L730 258.6L957 318.6Z" fill="#020202" stroke="#000000"></path><path d="M763 913.7L929 782.4L835 722.4Z" fill="#090909" stroke="#000000"></path><path d="M623 797.4L763 913.7L835 722.4Z" fill="#000000" stroke="#000000"></path><path d="M1293 180.3L1141 129.3L1082 242.6Z" fill="#010101" stroke="#000000"></path><path d="M982 200.3L863 100.3L730 258.6Z" fill="#0b0b0b" stroke="#000000"></path><path d="M664 633.1L623 797.4L835 722.4Z" fill="#080808" stroke="#000000"></path><path d="M537 577.1L623 797.4L664 633.1Z" fill="#020202" stroke="#000000"></path><path d="M546 433.9L537 577.1L691 459.9Z" fill="#0b0b0b" stroke="#000000"></path><path d="M1330 343.6L1293 180.3L1082 242.6Z" fill="#000000" stroke="#000000"></path><path d="M444 376.6L546 433.9L694 316.6Z" fill="#000000" stroke="#000000"></path><path d="M694 316.6L546 433.9L691 459.9Z" fill="#090909" stroke="#000000"></path><path d="M978 0L863 100.3L982 200.3Z" fill="#080808" stroke="#000000"></path><path d="M730 258.6L586 145.3L694 316.6Z" fill="#050505" stroke="#000000"></path><path d="M1375 585.1L1497 406.9L1333 441.9Z" fill="#020202" stroke="#000000"></path><path d="M1330 343.6L1452 226.3L1293 180.3Z" fill="#090909" stroke="#000000"></path><path d="M1596 522.9L1497 406.9L1375 585.1Z" fill="#0a0a0a" stroke="#000000"></path><path d="M1059 890.7L1347 952.7L1069 817.4Z" fill="#020202" stroke="#000000"></path><path d="M1310 729.4L1483 786.4L1375 585.1Z" fill="#0a0a0a" stroke="#000000"></path><path d="M1233 1080L1347 952.7L1059 890.7Z" fill="#0a0a0a" stroke="#000000"></path><path d="M1426 932.7L1483 786.4L1310 729.4Z" fill="#080808" stroke="#000000"></path><path d="M911 1080L1107 1080L905 971.7Z" fill="#070707" stroke="#000000"></path><path d="M905 971.7L1107 1080L1059 890.7Z" fill="#070707" stroke="#000000"></path><path d="M750 1080L905 971.7L763 913.7Z" fill="#050505" stroke="#000000"></path><path d="M750 1080L911 1080L905 971.7Z" fill="#040404" stroke="#000000"></path><path d="M1483 786.4L1535 711.4L1375 585.1Z" fill="#0b0b0b" stroke="#000000"></path><path d="M1508 295.6L1452 226.3L1330 343.6Z" fill="#010101" stroke="#000000"></path><path d="M1138 0L978 0L1141 129.3Z" fill="#090909" stroke="#000000"></path><path d="M1347 952.7L1426 932.7L1310 729.4Z" fill="#090909" stroke="#000000"></path><path d="M1483 786.4L1656 890.7L1535 711.4Z" fill="#0b0b0b" stroke="#000000"></path><path d="M1503 1080L1426 932.7L1347 952.7Z" fill="#050505" stroke="#000000"></path><path d="M1141 129.3L978 0L982 200.3Z" fill="#090909" stroke="#000000"></path><path d="M1138 0L1141 129.3L1222 0Z" fill="#020202" stroke="#000000"></path><path d="M1497 406.9L1508 295.6L1330 343.6Z" fill="#040404" stroke="#000000"></path><path d="M1614 346.6L1508 295.6L1497 406.9Z" fill="#020202" stroke="#000000"></path><path d="M1107 1080L1233 1080L1059 890.7Z" fill="#020202" stroke="#000000"></path><path d="M454 784.4L567 924.7L623 797.4Z" fill="#060606" stroke="#000000"></path><path d="M623 797.4L567 924.7L763 913.7Z" fill="#040404" stroke="#000000"></path><path d="M1222 0L1141 129.3L1293 180.3Z" fill="#060606" stroke="#000000"></path><path d="M552 983.7L750 1080L763 913.7Z" fill="#070707" stroke="#000000"></path><path d="M1535 711.4L1596 522.9L1375 585.1Z" fill="#070707" stroke="#000000"></path><path d="M741 0L730 258.6L863 100.3Z" fill="#0a0a0a" stroke="#000000"></path><path d="M741 0L586 145.3L730 258.6Z" fill="#040404" stroke="#000000"></path><path d="M586 145.3L444 376.6L694 316.6Z" fill="#070707" stroke="#000000"></path><path d="M546 433.9L444 376.6L537 577.1Z" fill="#020202" stroke="#000000"></path><path d="M537 577.1L454 784.4L623 797.4Z" fill="#050505" stroke="#000000"></path><path d="M357 674.1L454 784.4L537 577.1Z" fill="#010101" stroke="#000000"></path><path d="M1485 0L1222 0L1293 180.3Z" fill="#080808" stroke="#000000"></path><path d="M1535 711.4L1628 588.1L1596 522.9Z" fill="#090909" stroke="#000000"></path><path d="M1596 522.9L1614 346.6L1497 406.9Z" fill="#050505" stroke="#000000"></path><path d="M1783 624.1L1628 588.1L1798 710.4Z" fill="#020202" stroke="#000000"></path><path d="M978 0L741 0L863 100.3Z" fill="#0b0b0b" stroke="#000000"></path><path d="M454 784.4L552 983.7L567 924.7Z" fill="#070707" stroke="#000000"></path><path d="M567 924.7L552 983.7L763 913.7Z" fill="#050505" stroke="#000000"></path><path d="M1508 295.6L1549 148.3L1452 226.3Z" fill="#070707" stroke="#000000"></path><path d="M1452 226.3L1485 0L1293 180.3Z" fill="#060606" stroke="#000000"></path><path d="M1713 415.9L1614 346.6L1596 522.9Z" fill="#090909" stroke="#000000"></path><path d="M350 417.9L357 674.1L537 577.1Z" fill="#010101" stroke="#000000"></path><path d="M288 987.7L480 1080L552 983.7Z" fill="#060606" stroke="#000000"></path><path d="M480 1080L586 1080L552 983.7Z" fill="#060606" stroke="#000000"></path><path d="M552 983.7L586 1080L750 1080Z" fill="#0a0a0a" stroke="#000000"></path><path d="M280 265.6L350 417.9L444 376.6Z" fill="#020202" stroke="#000000"></path><path d="M444 376.6L350 417.9L537 577.1Z" fill="#050505" stroke="#000000"></path><path d="M1614 346.6L1549 148.3L1508 295.6Z" fill="#090909" stroke="#000000"></path><path d="M438 0L433 174.3L586 145.3Z" fill="#050505" stroke="#000000"></path><path d="M586 145.3L433 174.3L444 376.6Z" fill="#050505" stroke="#000000"></path><path d="M741 0L575 0L586 145.3Z" fill="#070707" stroke="#000000"></path><path d="M1233 1080L1503 1080L1347 952.7Z" fill="#050505" stroke="#000000"></path><path d="M1426 932.7L1656 890.7L1483 786.4Z" fill="#0a0a0a" stroke="#000000"></path><path d="M1783 624.1L1713 415.9L1628 588.1Z" fill="#060606" stroke="#000000"></path><path d="M1628 588.1L1713 415.9L1596 522.9Z" fill="#080808" stroke="#000000"></path><path d="M1614 346.6L1741 184.3L1549 148.3Z" fill="#050505" stroke="#000000"></path><path d="M1532 1080L1656 890.7L1426 932.7Z" fill="#010101" stroke="#000000"></path><path d="M1627 0L1485 0L1549 148.3Z" fill="#020202" stroke="#000000"></path><path d="M1549 148.3L1485 0L1452 226.3Z" fill="#040404" stroke="#000000"></path><path d="M1503 1080L1532 1080L1426 932.7Z" fill="#020202" stroke="#000000"></path><path d="M288 987.7L552 983.7L454 784.4Z" fill="#040404" stroke="#000000"></path><path d="M95 591.1L263 725.4L357 674.1Z" fill="#000000" stroke="#000000"></path><path d="M357 674.1L263 725.4L454 784.4Z" fill="#020202" stroke="#000000"></path><path d="M1798 710.4L1628 588.1L1535 711.4Z" fill="#0a0a0a" stroke="#000000"></path><path d="M433 174.3L280 265.6L444 376.6Z" fill="#040404" stroke="#000000"></path><path d="M350 417.9L126 466.9L357 674.1Z" fill="#0b0b0b" stroke="#000000"></path><path d="M297 88.3L280 265.6L433 174.3Z" fill="#010101" stroke="#000000"></path><path d="M575 0L438 0L586 145.3Z" fill="#090909" stroke="#000000"></path><path d="M1656 890.7L1798 710.4L1535 711.4Z" fill="#0b0b0b" stroke="#000000"></path><path d="M1824 995.7L1798 710.4L1656 890.7Z" fill="#0b0b0b" stroke="#000000"></path><path d="M1773 241.6L1741 184.3L1614 346.6Z" fill="#050505" stroke="#000000"></path><path d="M1773 241.6L1614 346.6L1713 415.9Z" fill="#040404" stroke="#000000"></path><path d="M1773 241.6L1713 415.9L1920 256.6Z" fill="#010101" stroke="#000000"></path><path d="M1920 530.9L1713 415.9L1783 624.1Z" fill="#020202" stroke="#000000"></path><path d="M1741 184.3L1627 0L1549 148.3Z" fill="#060606" stroke="#000000"></path><path d="M139 171.3L195 373.6L280 265.6Z" fill="#040404" stroke="#000000"></path><path d="M280 265.6L195 373.6L350 417.9Z" fill="#020202" stroke="#000000"></path><path d="M263 725.4L288 987.7L454 784.4Z" fill="#080808" stroke="#000000"></path><path d="M133 923.7L288 987.7L263 725.4Z" fill="#070707" stroke="#000000"></path><path d="M438 0L370 0L433 174.3Z" fill="#0b0b0b" stroke="#000000"></path><path d="M370 0L297 88.3L433 174.3Z" fill="#0b0b0b" stroke="#000000"></path><path d="M95 591.1L150 748.4L263 725.4Z" fill="#070707" stroke="#000000"></path><path d="M1920 85.3L1696 0L1741 184.3Z" fill="#050505" stroke="#000000"></path><path d="M1741 184.3L1696 0L1627 0Z" fill="#090909" stroke="#000000"></path><path d="M0 394.9L126 466.9L0 353.6Z" fill="#010101" stroke="#000000"></path><path d="M195 373.6L126 466.9L350 417.9Z" fill="#040404" stroke="#000000"></path><path d="M100 1080L283 1080L288 987.7Z" fill="#070707" stroke="#000000"></path><path d="M288 987.7L283 1080L480 1080Z" fill="#050505" stroke="#000000"></path><path d="M1920 723.4L1783 624.1L1798 710.4Z" fill="#060606" stroke="#000000"></path><path d="M1920 723.4L1920 573.1L1783 624.1Z" fill="#060606" stroke="#000000"></path><path d="M1773 241.6L1920 85.3L1741 184.3Z" fill="#020202" stroke="#000000"></path><path d="M1920 573.1L1920 530.9L1783 624.1Z" fill="#0b0b0b" stroke="#000000"></path><path d="M1532 1080L1759 1080L1656 890.7Z" fill="#070707" stroke="#000000"></path><path d="M126 466.9L95 591.1L357 674.1Z" fill="#060606" stroke="#000000"></path><path d="M1759 1080L1824 995.7L1656 890.7Z" fill="#080808" stroke="#000000"></path><path d="M1920 966.7L1920 723.4L1798 710.4Z" fill="#070707" stroke="#000000"></path><path d="M0 786.4L133 923.7L150 748.4Z" fill="#090909" stroke="#000000"></path><path d="M150 748.4L133 923.7L263 725.4Z" fill="#000000" stroke="#000000"></path><path d="M297 88.3L139 171.3L280 265.6Z" fill="#010101" stroke="#000000"></path><path d="M126 466.9L0 550.1L95 591.1Z" fill="#040404" stroke="#000000"></path><path d="M215 0L139 171.3L297 88.3Z" fill="#060606" stroke="#000000"></path><path d="M1920 530.9L1920 256.6L1713 415.9Z" fill="#0a0a0a" stroke="#000000"></path><path d="M370 0L215 0L297 88.3Z" fill="#090909" stroke="#000000"></path><path d="M1920 1080L1920 966.7L1824 995.7Z" fill="#090909" stroke="#000000"></path><path d="M1824 995.7L1920 966.7L1798 710.4Z" fill="#090909" stroke="#000000"></path><path d="M0 394.9L0 550.1L126 466.9Z" fill="#0b0b0b" stroke="#000000"></path><path d="M95 591.1L0 786.4L150 748.4Z" fill="#060606" stroke="#000000"></path><path d="M0 353.6L195 373.6L139 171.3Z" fill="#080808" stroke="#000000"></path><path d="M0 353.6L126 466.9L195 373.6Z" fill="#010101" stroke="#000000"></path><path d="M1920 256.6L1920 85.3L1773 241.6Z" fill="#0a0a0a" stroke="#000000"></path><path d="M0 93.3L0 353.6L139 171.3Z" fill="#050505" stroke="#000000"></path><path d="M0 550.1L0 786.4L95 591.1Z" fill="#020202" stroke="#000000"></path><path d="M133 923.7L100 1080L288 987.7Z" fill="#020202" stroke="#000000"></path><path d="M0 912.7L100 1080L133 923.7Z" fill="#010101" stroke="#000000"></path><path d="M1759 1080L1920 1080L1824 995.7Z" fill="#040404" stroke="#000000"></path><path d="M0 786.4L0 912.7L133 923.7Z" fill="#0a0a0a" stroke="#000000"></path><path d="M1920 85.3L1920 0L1696 0Z" fill="#090909" stroke="#000000"></path><path d="M215 0L0 93.3L139 171.3Z" fill="#0a0a0a" stroke="#000000"></path><path d="M0 912.7L0 1080L100 1080Z" fill="#020202" stroke="#000000"></path><path d="M215 0L0 0L0 93.3Z" fill="#090909" stroke="#000000"></path></g></svg>