<svg id="visual" viewBox="0 0 1920 1080" width="1920" height="1080" xmlns="http://www.w3.org/2000/svg" xmlns:xlink="http://www.w3.org/1999/xlink" version="1.1"><g stroke-width="16" stroke-linejoin="bevel"><path d="M859.3 501L1035.7 392L877.3 379Z" fill="#101010" stroke="#000000"></path><path d="M859.3 501L1072.7 559L1035.7 392Z" fill="#070707" stroke="#000000"></path><path d="M859.3 501L1033.7 700L1072.7 559Z" fill="#0c0c0c" stroke="#000000"></path><path d="M630 562L829.3 696L859.3 501Z" fill="#0b0b0b" stroke="#000000"></path><path d="M859.3 501L829.3 696L1033.7 700Z" fill="#101010" stroke="#000000"></path><path d="M877.3 379L677 369L859.3 501Z" fill="#020202" stroke="#000000"></path><path d="M1037.7 154L852.3 176L877.3 379Z" fill="#020202" stroke="#000000"></path><path d="M877.3 379L852.3 176L677 369Z" fill="#090909" stroke="#000000"></path><path d="M1280 722L1249 505L1072.7 559Z" fill="#0b0b0b" stroke="#000000"></path><path d="M1072.7 559L1249 505L1035.7 392Z" fill="#0d0d0d" stroke="#000000"></path><path d="M1035.7 392L1037.7 154L877.3 379Z" fill="#020202" stroke="#000000"></path><path d="M1311 328L1037.7 154L1035.7 392Z" fill="#0c0c0c" stroke="#000000"></path><path d="M677 369L630 562L859.3 501Z" fill="#0c0c0c" stroke="#000000"></path><path d="M1249 505L1311 328L1035.7 392Z" fill="#020202" stroke="#000000"></path><path d="M630 562L632 720L829.3 696Z" fill="#050505" stroke="#000000"></path><path d="M829.3 696L885.3 869L1033.7 700Z" fill="#0d0d0d" stroke="#000000"></path><path d="M629 892L885.3 869L829.3 696Z" fill="#040404" stroke="#000000"></path><path d="M1033.7 700L1280 722L1072.7 559Z" fill="#101010" stroke="#000000"></path><path d="M1103.7 860L1280 722L1033.7 700Z" fill="#0f0f0f" stroke="#000000"></path><path d="M1249 505L1473.3 543L1311 328Z" fill="#0d0d0d" stroke="#000000"></path><path d="M841.3 0L634 156L852.3 176Z" fill="#040404" stroke="#000000"></path><path d="M852.3 176L634 156L677 369Z" fill="#070707" stroke="#000000"></path><path d="M677 369L422.7 516L630 562Z" fill="#0b0b0b" stroke="#000000"></path><path d="M885.3 869L1103.7 860L1033.7 700Z" fill="#070707" stroke="#000000"></path><path d="M1311 328L1271 143L1037.7 154Z" fill="#0b0b0b" stroke="#000000"></path><path d="M1037.7 154L841.3 0L852.3 176Z" fill="#070707" stroke="#000000"></path><path d="M1271 143L1055.7 0L1037.7 154Z" fill="#000000" stroke="#000000"></path><path d="M1055.7 0L841.3 0L1037.7 154Z" fill="#050505" stroke="#000000"></path><path d="M634 156L435.7 336L677 369Z" fill="#070707" stroke="#000000"></path><path d="M630 562L443.7 716L632 720Z" fill="#000000" stroke="#000000"></path><path d="M1280 722L1473.3 543L1249 505Z" fill="#070707" stroke="#000000"></path><path d="M1311 328L1475.3 199L1271 143Z" fill="#040404" stroke="#000000"></path><path d="M435.7 336L422.7 516L677 369Z" fill="#070707" stroke="#000000"></path><path d="M841.3 0L655 0L634 156Z" fill="#050505" stroke="#000000"></path><path d="M634 156L433.7 184L435.7 336Z" fill="#0b0b0b" stroke="#000000"></path><path d="M632 720L629 892L829.3 696Z" fill="#090909" stroke="#000000"></path><path d="M1047.7 1080L1263 939L1103.7 860Z" fill="#0c0c0c" stroke="#000000"></path><path d="M443.7 716L629 892L632 720Z" fill="#101010" stroke="#000000"></path><path d="M1473.3 543L1505.3 358L1311 328Z" fill="#050505" stroke="#000000"></path><path d="M422.7 516L443.7 716L630 562Z" fill="#0c0c0c" stroke="#000000"></path><path d="M1103.7 860L1263 939L1280 722Z" fill="#0f0f0f" stroke="#000000"></path><path d="M1280 722L1472.3 711L1473.3 543Z" fill="#050505" stroke="#000000"></path><path d="M1047.7 1080L1103.7 860L885.3 869Z" fill="#000000" stroke="#000000"></path><path d="M1475.3 199L1317 0L1271 143Z" fill="#070707" stroke="#000000"></path><path d="M1271 143L1317 0L1055.7 0Z" fill="#050505" stroke="#000000"></path><path d="M1512.3 888L1472.3 711L1280 722Z" fill="#0b0b0b" stroke="#000000"></path><path d="M1744.7 504L1691.7 345L1505.3 358Z" fill="#0f0f0f" stroke="#000000"></path><path d="M1505.3 358L1475.3 199L1311 328Z" fill="#0f0f0f" stroke="#000000"></path><path d="M454.7 0L433.7 184L634 156Z" fill="#020202" stroke="#000000"></path><path d="M435.7 336L248.3 394L422.7 516Z" fill="#0b0b0b" stroke="#000000"></path><path d="M816.3 1080L1047.7 1080L885.3 869Z" fill="#0b0b0b" stroke="#000000"></path><path d="M647 1080L816.3 1080L629 892Z" fill="#050505" stroke="#000000"></path><path d="M629 892L816.3 1080L885.3 869Z" fill="#090909" stroke="#000000"></path><path d="M655 0L454.7 0L634 156Z" fill="#090909" stroke="#000000"></path><path d="M443.7 716L441.7 925L629 892Z" fill="#0d0d0d" stroke="#000000"></path><path d="M197.3 718L441.7 925L443.7 716Z" fill="#0f0f0f" stroke="#000000"></path><path d="M441.7 925L647 1080L629 892Z" fill="#0f0f0f" stroke="#000000"></path><path d="M1047.7 1080L1258 1080L1263 939Z" fill="#090909" stroke="#000000"></path><path d="M1263 939L1512.3 888L1280 722Z" fill="#0d0d0d" stroke="#000000"></path><path d="M222.3 219L435.7 336L433.7 184Z" fill="#101010" stroke="#000000"></path><path d="M222.3 219L248.3 394L435.7 336Z" fill="#070707" stroke="#000000"></path><path d="M422.7 516L197.3 718L443.7 716Z" fill="#0b0b0b" stroke="#000000"></path><path d="M1454.3 1080L1512.3 888L1263 939Z" fill="#040404" stroke="#000000"></path><path d="M1744.7 504L1505.3 358L1473.3 543Z" fill="#000000" stroke="#000000"></path><path d="M1667.7 170L1505.3 0L1475.3 199Z" fill="#0b0b0b" stroke="#000000"></path><path d="M1475.3 199L1505.3 0L1317 0Z" fill="#0c0c0c" stroke="#000000"></path><path d="M1667.7 170L1475.3 199L1505.3 358Z" fill="#0b0b0b" stroke="#000000"></path><path d="M1744.7 504L1473.3 543L1710.7 734Z" fill="#000000" stroke="#000000"></path><path d="M202.3 0L222.3 219L433.7 184Z" fill="#101010" stroke="#000000"></path><path d="M1691.7 345L1667.7 170L1505.3 358Z" fill="#101010" stroke="#000000"></path><path d="M0 383L179.3 551L248.3 394Z" fill="#040404" stroke="#000000"></path><path d="M248.3 394L179.3 551L422.7 516Z" fill="#000000" stroke="#000000"></path><path d="M1710.7 734L1473.3 543L1472.3 711Z" fill="#101010" stroke="#000000"></path><path d="M1920 0L1687.7 0L1667.7 170Z" fill="#101010" stroke="#000000"></path><path d="M179.3 551L197.3 718L422.7 516Z" fill="#020202" stroke="#000000"></path><path d="M1258 1080L1454.3 1080L1263 939Z" fill="#000000" stroke="#000000"></path><path d="M1512.3 888L1710.7 734L1472.3 711Z" fill="#0c0c0c" stroke="#000000"></path><path d="M1724.7 919L1710.7 734L1512.3 888Z" fill="#101010" stroke="#000000"></path><path d="M200.3 1080L436.7 1080L441.7 925Z" fill="#0c0c0c" stroke="#000000"></path><path d="M441.7 925L436.7 1080L647 1080Z" fill="#050505" stroke="#000000"></path><path d="M1920 214L1667.7 170L1691.7 345Z" fill="#050505" stroke="#000000"></path><path d="M1667.7 170L1687.7 0L1505.3 0Z" fill="#040404" stroke="#000000"></path><path d="M454.7 0L202.3 0L433.7 184Z" fill="#0d0d0d" stroke="#000000"></path><path d="M222.3 219L0 383L248.3 394Z" fill="#090909" stroke="#000000"></path><path d="M0 750L195.3 920L197.3 718Z" fill="#000000" stroke="#000000"></path><path d="M197.3 718L195.3 920L441.7 925Z" fill="#0d0d0d" stroke="#000000"></path><path d="M1689.7 1080L1724.7 919L1512.3 888Z" fill="#020202" stroke="#000000"></path><path d="M1920 565L1920 369L1744.7 504Z" fill="#020202" stroke="#000000"></path><path d="M0 172L0 383L222.3 219Z" fill="#000000" stroke="#000000"></path><path d="M179.3 551L0 556L197.3 718Z" fill="#0b0b0b" stroke="#000000"></path><path d="M0 383L0 556L179.3 551Z" fill="#040404" stroke="#000000"></path><path d="M1454.3 1080L1689.7 1080L1512.3 888Z" fill="#0f0f0f" stroke="#000000"></path><path d="M1920 565L1744.7 504L1710.7 734Z" fill="#0b0b0b" stroke="#000000"></path><path d="M1744.7 504L1920 369L1691.7 345Z" fill="#0f0f0f" stroke="#000000"></path><path d="M1920 565L1710.7 734L1920 702Z" fill="#0c0c0c" stroke="#000000"></path><path d="M1920 702L1710.7 734L1920 897Z" fill="#000000" stroke="#000000"></path><path d="M195.3 920L200.3 1080L441.7 925Z" fill="#050505" stroke="#000000"></path><path d="M0 1080L200.3 1080L195.3 920Z" fill="#070707" stroke="#000000"></path><path d="M202.3 0L0 172L222.3 219Z" fill="#0c0c0c" stroke="#000000"></path><path d="M0 556L0 750L197.3 718Z" fill="#0d0d0d" stroke="#000000"></path><path d="M1920 369L1920 214L1691.7 345Z" fill="#000000" stroke="#000000"></path><path d="M1920 897L1710.7 734L1724.7 919Z" fill="#050505" stroke="#000000"></path><path d="M202.3 0L0 0L0 172Z" fill="#050505" stroke="#000000"></path><path d="M0 750L0 906L195.3 920Z" fill="#0b0b0b" stroke="#000000"></path><path d="M1920 1080L1920 897L1724.7 919Z" fill="#0f0f0f" stroke="#000000"></path><path d="M1920 214L1920 0L1667.7 170Z" fill="#090909" stroke="#000000"></path><path d="M0 906L0 1080L195.3 920Z" fill="#020202" stroke="#000000"></path><path d="M1689.7 1080L1920 1080L1724.7 919Z" fill="#101010" stroke="#000000"></path></g></svg>